<svg fill="#ffffff" version="1.1" id="Capa_1" xmlns="http://www.w3.org/2000/svg" xmlns:xlink="http://www.w3.org/1999/xlink" viewBox="0 0 900.099 900.1" xml:space="preserve" stroke="#ffffff"><g id="SVGRepo_bgCarrier" stroke-width="0"></g><g id="SVGRepo_tracerCarrier" stroke-linecap="round" stroke-linejoin="round"></g><g id="SVGRepo_iconCarrier"> <g> <path d="M453.95,528.801c109,0,197.7-88.701,197.7-197.701s-88.7-197.7-197.7-197.7s-197.7,88.7-197.7,197.7 C256.25,440.2,344.95,528.801,453.95,528.801z M453.95,223.5c59.4,0,107.7,48.3,107.7,107.7s-48.3,107.7-107.7,107.7 s-107.7-48.3-107.7-107.7S394.549,223.5,453.95,223.5z"></path> <path d="M122.95,677.1h90V558.301c2.2,2.398,4.5,4.699,6.8,7c30.4,30.398,65.8,54.299,105.3,71c40.9,17.299,84.2,26,128.9,26 s88.1-8.801,128.9-26c39.399-16.701,74.899-40.602,105.3-71c2.3-2.301,4.6-4.701,6.8-7V640.1h90v-298c0.1-3.6,0.2-7.3,0.2-10.9 c0-44.7-8.8-88.1-26-128.9c-16.7-39.4-40.601-74.9-71-105.3c-30.4-30.4-65.8-54.3-105.3-71c-40.9-17.3-84.2-26-128.9-26 s-88.1,8.8-128.9,26c-39.399,16.7-74.899,40.6-105.3,71c-30.4,30.4-54.3,65.8-71,105.3c-17.3,40.9-26,84.2-26,128.9 c0,3.7,0.1,7.3,0.2,10.9V677.1L122.95,677.1z M283.35,160.6C328.95,115,389.45,90,453.95,90s125,25.1,170.6,70.6 c45.5,45.5,70.601,106.1,70.601,170.5h-0.2c0,0,0,0,0,0.1c0,63.8-25.3,125.399-70.4,170.601c-45.6,45.5-106.199,70.6-170.6,70.6 s-125-25.1-170.6-70.6c-44.9-45-70.4-107.201-70.4-170.601c0,0,0,0,0-0.1h-0.2C212.75,266.7,237.85,206.1,283.35,160.6z"></path> <path d="M93.25,799.301l42.5,89.398c3.3,7,10.3,11.4,18.1,11.4h14.1h14.5c7.7,0,14.8-4.5,18.1-11.5l42.4-89.699 c1.3-2.701,2.1-5.6,2.1-8.5v-54c0-11-9.3-20.301-20.3-20.301h-11.8h-90h-11.7c-11,0-20,9.1-20,20.201v54.398 C91.25,793.6,91.95,796.6,93.25,799.301z"></path> <path d="M671.25,694.301V738.1c0,11,9,20,20,20l0,0h97.5c11,0,20.101-8.9,20.101-19.9V699.5c0-11-9.301-20.301-20.301-20.301 h-102.3C677.95,679.1,671.25,686,671.25,694.301z"/> </g> </g></svg>