<?xml version="1.0" encoding="utf-8"?>
<svg version="1.0" xmlns="http://www.w3.org/2000/svg" width="300.000000pt" height="300.000000pt" viewBox="0 0 300.000000 300.000000" preserveAspectRatio="xMidYMid meet">
  <g transform="translate(0.000000,300.000000) scale(0.100000,-0.100000)" style="">
    <path fill="#FFFFFF" stroke="none" d="M 1403 2171 C 1252 2125 1210 2089 900 1740 C 790 1616 633 1444 569 1375 C 440 1237 420 1205 420 1131 C 420 1065 463 1008 542 968 C 626 926 719 920 779 952 C 814 971 827 985 837 1017 C 849 1052 849 1063 837 1093 C 825 1121 809 1134 756 1159 C 669 1200 669 1217 760 1317 C 785 1345 1027 1614 1027 1614 L 1035 1565 C 1065.847 1358.183 1157.303 1283.405 1333.336 1210.559 C 1367.635 1196.366 1435.951 1178.547 1555.879 1193.188 C 1604.916 1199.175 1706.368 1234.773 1744.371 1286.284 C 2060.641 1714.967 2295.222 1572.639 2385.014 1418.173 C 2432.797 1335.973 2415.14 1194.421 2380.228 1144.772 C 2365.13 1123.3 2348.381 1135.234 2314.381 1146.234 C 2252.381 1168.234 2154.744 1188.323 2122.081 1144.848 C 2053.776 1053.934 2095 1007 2130 981 C 2183 942 2241.924 918.386 2317.924 924.386 C 2394.924 930.386 2457 966 2503 1021 C 2549 1074 2570 1136 2577 1235 C 2590 1429 2495 1598 2325 1681 C 2258 1714 2150.152 1725.152 2150.152 1725.152 C 2041.183 1727.763 2022 1713 1959 1683 C 1890 1649 1815 1582 1708 1459 C 1628 1367 1565 1336 1450 1336 C 1351 1336 1317 1349 1254 1415 C 1201 1470 1180 1535 1180 1640 C 1180 1706 1185 1731 1206 1775 C 1239 1846 1298 1895 1378 1920 C 1489 1955 1568 1945 1716 1880 C 1783 1850 1885.984 1856.061 1907.848 1943.391 C 1928.205 2024.702 1892 2077 1835 2113 C 1725 2182 1528 2209 1403 2171 Z" style="paint-order: fill;"/>
  </g>
</svg>